<svg xmlns="http://www.w3.org/2000/svg" width="16" height="18" viewBox="0 0 16 18">
    <path fill="#999" fill-rule="nonzero" d="M1.23 16H4v-2.77H1.23V16zm3.385 0h3.077v-2.77H4.615V16zm-3.384-3.385H4V9.538H1.23v3.077zm3.384 0h3.077V9.538H4.615v3.077zM1.231 8.923H4v-2.77H1.23v2.77zM8.308 16h3.077v-2.77H8.308V16zM4.615 8.923h3.077v-2.77H4.615v2.77zM12 16h2.77v-2.77H12V16zm-3.692-3.385h3.077V9.538H8.308v3.077zM4.923 4.308v-2.77a.316.316 0 0 0-.308-.307H4a.316.316 0 0 0-.308.307v2.77c0 .163.144.307.308.307h.615a.316.316 0 0 0 .308-.307zM12 12.615h2.77V9.538H12v3.077zM8.308 8.923h3.077v-2.77H8.308v2.77zm3.692 0h2.77v-2.77H12v2.77zm.308-4.615v-2.77A.316.316 0 0 0 12 1.231h-.615a.316.316 0 0 0-.308.307v2.77c0 .163.144.307.308.307H12a.316.316 0 0 0 .308-.307zM16 3.692V16a1.24 1.24 0 0 1-1.23 1.23H1.23A1.24 1.24 0 0 1 0 16V3.692c0-.673.558-1.23 1.23-1.23h1.232v-.924C2.462.692 3.154 0 4 0h.615c.847 0 1.539.692 1.539 1.538v.924h3.692v-.924C9.846.692 10.538 0 11.385 0H12c.846 0 1.538.692 1.538 1.538v.924h1.231c.673 0 1.231.557 1.231 1.23z"/>
</svg>
