<svg xmlns="http://www.w3.org/2000/svg" xmlns:xlink="http://www.w3.org/1999/xlink" width="60" height="60" viewBox="0 0 60 60">
    <defs>
        <path id="a" d="M35.856 29.999l22.939-22.93a4.16 4.16 0 0 0 0-5.857c-1.616-1.616-4.25-1.616-5.857 0l-22.939 22.93L7.07 1.212a4.145 4.145 0 0 0-5.857 0 4.145 4.145 0 0 0 0 5.856l22.93 22.93-22.93 22.94c-1.616 1.607-1.616 4.241 0 5.856a4.16 4.16 0 0 0 5.856 0l22.93-22.938 22.94 22.938c1.607 1.607 4.241 1.607 5.856 0 1.607-1.615 1.607-4.25 0-5.856l-22.938-22.94z"/>
    </defs>
    <g fill="none" fill-rule="evenodd">
        <mask id="b" fill="#fff">
            <use xlink:href="#a"/>
        </mask>
        <use fill="#FFF" xlink:href="#a"/>
        <g fill="#464646" mask="url(#b)">
            <path d="M0 0h60v60H0z"/>
        </g>
    </g>
</svg>
