<svg xmlns="http://www.w3.org/2000/svg" width="16" height="17" viewBox="0 0 16 17">
    <path fill="#317DBD" fill-rule="evenodd" d="M2.442 11.586l1.978 1.977-2.79.813.812-2.79zm9.735-10.218a.237.237 0 0 1 .153-.066.2.2 0 0 1 .154.066l2.176 2.175a.382.382 0 0 1 .066.154c0 .022 0 .11-.066.154l-1.583 1.582-2.483-2.483 1.583-1.582zM9.65 3.895l2.483 2.483-6.527 6.526-2.483-2.483L9.65 3.895zM.662 16.025c.066 0 .132 0 .176-.022l4.593-1.341c.241-.066.483-.198.659-.396l9.47-9.47c.286-.286.44-.681.44-1.099 0-.417-.154-.791-.44-1.077L13.386.445a1.552 1.552 0 0 0-2.175 0L1.76 9.915a1.823 1.823 0 0 0-.396.66l-1.34 4.592a.68.68 0 0 0 .637.857z"/>
</svg>
