<svg id="Layer_1" data-name="Layer 1" xmlns="http://www.w3.org/2000/svg" viewBox="0 0 100 100"><defs><style>.cls-1{fill:#4ad7d5;}.cls-2{fill:#515151;}</style></defs><title>Artboard 11</title><circle class="cls-1" cx="50.62" cy="49.89" r="2.42"/><circle class="cls-1" cx="53.52" cy="45.66" r="2.42"/><circle class="cls-1" cx="56.26" cy="49.93" r="2.42"/><path class="cls-2" d="M50.86,45.27l-.18,0L30.9,40.45a.75.75,0,0,1-.54-.51.73.73,0,0,1,.16-.72,13.54,13.54,0,0,1,19.68-.4,13.73,13.73,0,0,1,2.72,4,.75.75,0,0,1-1.37.62,12,12,0,0,0-19-4.11L51,43.79a.75.75,0,0,1-.18,1.48Z"/><path class="cls-2" d="M56,44.92a.75.75,0,0,1-.18-1.48l17.37-4.38a12,12,0,0,0-18.87,4.1A.75.75,0,1,1,53,42.54a13.54,13.54,0,0,1,22.27-3.6.78.78,0,0,1,.17.73.75.75,0,0,1-.54.51L56.18,44.9Z"/><path class="cls-2" d="M69.14,61.91a.79.79,0,0,1-.54-.22L58.41,51.4a.76.76,0,0,1,0-1.07.75.75,0,0,1,1.06,0l9.25,9.34A12.05,12.05,0,0,0,56.33,45.46.75.75,0,1,1,56.26,44,13.53,13.53,0,0,1,69.85,61.38a.74.74,0,0,1-.53.51Z"/><path class="cls-2" d="M37.35,62.11l-.16,0a.75.75,0,0,1-.55-.5A13.55,13.55,0,0,1,50.82,43.94a.75.75,0,0,1-.14,1.49,12.06,12.06,0,0,0-13,14.44l9.57-10.1a.75.75,0,0,1,1.06,0,.75.75,0,0,1,0,1.06L37.9,61.88A.76.76,0,0,1,37.35,62.11Z"/><path class="cls-2" d="M53.51,43.6a.83.83,0,0,1-.22,0,.75.75,0,0,1-.5-.94l5.44-17.82a12,12,0,0,0-8.08,14,.76.76,0,0,1-.57.9.75.75,0,0,1-.89-.58A13.54,13.54,0,0,1,59.19,23a.72.72,0,0,1,.7.23.76.76,0,0,1,.17.72L54.23,43.07A.76.76,0,0,1,53.51,43.6Z"/><path class="cls-2" d="M56.29,53.46a3.54,3.54,0,0,1-3-5.46.7.7,0,0,1,.5-.33,2.08,2.08,0,0,0,1.34-.9.7.7,0,0,1,.49-.33,3.41,3.41,0,0,1,.65-.07,3.55,3.55,0,0,1,0,7.09Zm-1.85-4.4a2,2,0,0,0-.2.86,2,2,0,1,0,1.95-2A3.58,3.58,0,0,1,54.44,49.06Z"/><path class="cls-2" d="M50.61,53.35a3.54,3.54,0,1,1,0-7.08,4.38,4.38,0,0,1,.51,0,.81.81,0,0,1,.56.37,2,2,0,0,0,1.45,1,.75.75,0,0,1,.53.37,3.5,3.5,0,0,1,.49,1.77A3.55,3.55,0,0,1,50.61,53.35Zm0-5.58a2,2,0,1,0,2,2,1.92,1.92,0,0,0-.15-.74A3.5,3.5,0,0,1,50.6,47.77Z"/><path class="cls-2" d="M53.43,49.21A3.55,3.55,0,1,1,57,45.66,3.55,3.55,0,0,1,53.43,49.21Zm0-5.59a2,2,0,1,0,2,2A2,2,0,0,0,53.43,43.62Z"/><path class="cls-2" d="M59.72,72h0a.74.74,0,0,1-.7-.79c.65-11.72-3.13-18-3.17-18a.75.75,0,0,1,1.28-.79c.16.26,4.07,6.66,3.38,18.9A.75.75,0,0,1,59.72,72Z"/><path class="cls-2" d="M54.49,70.89H54.4a.76.76,0,0,1-.66-.84c1-8.6-1.8-17.9-1.83-18a.75.75,0,1,1,1.43-.44c.12.39,2.95,9.69,1.89,18.62A.75.75,0,0,1,54.49,70.89Z"/><path class="cls-2" d="M73.17,77a.82.82,0,0,1-.39-.11c-6.06-3.71-14.63-5.84-23.53-5.84S31.78,73.19,25.72,76.9a.75.75,0,1,1-.79-1.28c6.39-3.91,15-6.06,24.32-6.06s17.93,2.15,24.32,6.06a.75.75,0,0,1-.4,1.39Z"/><path class="cls-2" d="M54.66,64.13a.77.77,0,0,1-.75-.69.76.76,0,0,1,.69-.81l4.69-.41a.76.76,0,0,1,.81.69.75.75,0,0,1-.68.81l-4.69.4Z"/><path class="cls-2" d="M54.13,58.59A.76.76,0,0,1,53.4,58a.74.74,0,0,1,.57-.89l4-.89a.75.75,0,0,1,.32,1.47l-4,.88Z"/></svg>