<svg xmlns="http://www.w3.org/2000/svg" xmlns:xlink="http://www.w3.org/1999/xlink" width="24" height="24" viewBox="0 0 24 24">
  <defs>
    <path id="search-b" d="M11.0763077,6.76958579 C11.0763077,4.39490789 9.14338462,2.46205915 6.76861538,2.46205915 C4.39384615,2.46205915 2.46092308,4.39490789 2.46092308,6.76958579 C2.46092308,9.14426368 4.39384615,11.0771124 6.76861538,11.0771124 C9.14338462,11.0771124 11.0763077,9.14426368 11.0763077,6.76958579 Z M14.7686154,16 C14.4418462,16 14.1243077,15.865236 13.9033846,15.6344756 L10.6055385,12.3459867 C9.48061538,13.1250337 8.13415385,13.5379408 6.76923077,13.5379408 C3.02892308,13.5379408 0,10.5091343 0,6.76897042 C0,3.02880658 3.02892308,0 6.76923077,0 C10.5095385,0 13.5384615,3.02880658 13.5384615,6.76897042 C13.5384615,8.13445637 13.1249231,9.48025076 12.3464615,10.6051306 L15.6443077,13.9028499 C15.8652308,14.1237645 16,14.4412907 16,14.7680474 C15.9993846,15.442483 15.4418462,16 14.7686154,16 Z"/>
    <filter id="search-a" width="181.2%" height="181.2%" x="-40.6%" y="-34.4%" filterUnits="objectBoundingBox">
      <feOffset dy="1" in="SourceAlpha" result="shadowOffsetOuter1"/>
      <feGaussianBlur in="shadowOffsetOuter1" result="shadowBlurOuter1" stdDeviation="2"/>
      <feColorMatrix in="shadowBlurOuter1" values="0 0 0 0 0   0 0 0 0 0   0 0 0 0 0  0 0 0 0.14 0"/>
    </filter>
  </defs>
  <g fill="none" fill-rule="evenodd" transform="translate(4 3)">
    <use fill="#000" filter="url(#search-a)" xlink:href="#search-b"/>
    <use fill="#3A72D3" xlink:href="#search-b"/>
  </g>
</svg>
