<svg xmlns="http://www.w3.org/2000/svg" width="20" height="20" viewBox="0 0 20 20">
    <g fill="none" fill-rule="evenodd">
        <circle cx="10" cy="10" r="10" fill="#317DBD"/>
        <path fill="#FFF" d="M10.442 12.04H9.376v-.913c0-.284.033-.54.099-.77.066-.228.157-.433.274-.616a2.92 2.92 0 0 1 .396-.495c.147-.147.297-.292.449-.434l.426-.38c.254-.204.465-.437.632-.701.168-.264.252-.594.252-.99 0-.284-.051-.538-.153-.761a1.651 1.651 0 0 0-.41-.564 1.82 1.82 0 0 0-.602-.35A2.189 2.189 0 0 0 10 4.944c-.548 0-.992.168-1.332.503-.34.335-.551.761-.632 1.279L7 6.543c.152-.792.5-1.414 1.043-1.865C8.586 4.226 9.253 4 10.046 4c.406 0 .789.058 1.15.175a2.515 2.515 0 0 1 1.569 1.363c.156.335.235.716.235 1.142 0 .325-.036.61-.107.853-.07.244-.17.462-.297.655a2.766 2.766 0 0 1-.449.525c-.172.158-.355.317-.548.48a8.35 8.35 0 0 0-.54.472 2.077 2.077 0 0 0-.358.45 1.76 1.76 0 0 0-.198.525c-.041.192-.061.426-.061.7v.7zm.396 2.194a.826.826 0 0 1-.229.57.765.765 0 0 1-.594.252.765.765 0 0 1-.594-.251.826.826 0 0 1 0-1.143.765.765 0 0 1 .594-.25c.244 0 .442.083.594.25a.826.826 0 0 1 .229.572z"/>
    </g>
</svg>
