<svg xmlns="http://www.w3.org/2000/svg" width="14" height="14" viewBox="0 0 14 14">
    <path fill="#333" fill-rule="nonzero" d="M11.667 9.707c0-.045 0-.1-.018-.146-.055-.163-1.386-.838-1.64-.984-.174-.1-.383-.3-.593-.3-.402 0-.994 1.193-1.35 1.193-.182 0-.41-.164-.573-.255C6.29 8.54 5.46 7.71 4.786 6.508c-.091-.164-.256-.392-.256-.574 0-.356 1.194-.948 1.194-1.349 0-.21-.2-.42-.3-.593-.147-.255-.82-1.586-.985-1.64-.045-.018-.1-.018-.146-.018-.237 0-.701.109-.92.2-.602.274-1.04 1.423-1.04 2.052 0 .61.247 1.166.457 1.732.729 1.996 2.898 4.165 4.894 4.894.565.21 1.121.456 1.732.456.629 0 1.778-.438 2.051-1.04.091-.218.2-.683.2-.92zM14 2.625v8.75A2.626 2.626 0 0 1 11.375 14h-8.75A2.626 2.626 0 0 1 0 11.375v-8.75A2.626 2.626 0 0 1 2.625 0h8.75A2.626 2.626 0 0 1 14 2.625z"/>
</svg>
