<svg id="Layer_1" data-name="Layer 1" xmlns="http://www.w3.org/2000/svg" viewBox="0 0 100 100"><defs><style>.cls-1{fill:#515151;}.cls-2{fill:#4ad7d5;}</style></defs><title>Artboard 14</title><path class="cls-1" d="M82.66,70.41H75.22a.75.75,0,0,1,0-1.5h6.69V39.09H26.09V68.91H69.42a.75.75,0,0,1,0,1.5H25.34a.75.75,0,0,1-.75-.75V38.34a.75.75,0,0,1,.75-.75H82.66a.75.75,0,0,1,.75.75V69.66A.75.75,0,0,1,82.66,70.41Z"/><path class="cls-1" d="M73.61,66.91H34.37a.76.76,0,0,1-.75-.75,4.72,4.72,0,0,0-4.71-4.74.79.79,0,0,1-.79-.75V47.36a.75.75,0,0,1,.75-.75h0a4.72,4.72,0,0,0,4.75-4.71.81.81,0,0,1,.75-.81H73.61a.75.75,0,0,1,.75.75,4.72,4.72,0,0,0,4.7,4.77.77.77,0,0,1,.57.21.74.74,0,0,1,.25.54V60.67a.74.74,0,0,1-.75.75h0a4.72,4.72,0,0,0-4.77,4.71A.78.78,0,0,1,73.61,66.91Zm-38.53-1.5H72.9A6.24,6.24,0,0,1,78.38,60V48.08a6.23,6.23,0,0,1-5.48-5.49H35.08a6.22,6.22,0,0,1-5.46,5.48V60A6.23,6.23,0,0,1,35.08,65.41Z"/><path class="cls-1" d="M34.62,56.84a2.67,2.67,0,1,1,2.67-2.67A2.67,2.67,0,0,1,34.62,56.84Zm0-3.84a1.17,1.17,0,1,0,0,2.34,1.17,1.17,0,0,0,0-2.34Z"/><path class="cls-1" d="M73.38,56.84a2.67,2.67,0,1,1,2.67-2.67A2.68,2.68,0,0,1,73.38,56.84Zm0-3.84a1.17,1.17,0,1,0,1.17,1.17A1.17,1.17,0,0,0,73.38,53Z"/><path class="cls-2" d="M46.92,66.13A14.34,14.34,0,0,1,40,54a14,14,0,0,1,7.1-12.17L61,41.92a14,14,0,0,1,0,24.21Z"/><path class="cls-1" d="M46.92,66.88a.74.74,0,0,1-.39-.11A15,15,0,0,1,39.28,54a14.76,14.76,0,0,1,7.48-12.82.79.79,0,0,1,.37-.1L61,41.17a.79.79,0,0,1,.37.1,14.72,14.72,0,0,1,0,25.5.76.76,0,0,1-.38.11Zm.41-24.26A13.22,13.22,0,0,0,40.78,54a13.51,13.51,0,0,0,6.35,11.35H60.79a13.23,13.23,0,0,0,0-22.71Z"/><path class="cls-1" d="M57.69,59.51a4.75,4.75,0,0,1-2.8,1.21v1.44a.71.71,0,0,1-.18.51.66.66,0,0,1-.48.19.63.63,0,0,1-.47-.19.71.71,0,0,1-.18-.51V60.74a8.27,8.27,0,0,1-2.21-.45,5.13,5.13,0,0,1-1.82-1.07.81.81,0,0,1-.15-1.1.43.43,0,0,1,.35-.19,1.12,1.12,0,0,1,.55.2,6.49,6.49,0,0,0,3.77,1.32,3.79,3.79,0,0,0,2.3-.62,2.08,2.08,0,0,0,.83-1.76,1.45,1.45,0,0,0-.43-1.1,2.9,2.9,0,0,0-1.06-.66A17.93,17.93,0,0,0,54,54.82a17.12,17.12,0,0,1-2.29-.72A3.79,3.79,0,0,1,50.17,53a2.93,2.93,0,0,1-.62-2,3.44,3.44,0,0,1,.5-1.83,3.85,3.85,0,0,1,1.42-1.32,5.16,5.16,0,0,1,2.09-.62V45.84a.68.68,0,0,1,.19-.5.62.62,0,0,1,.47-.2.63.63,0,0,1,.47.19.71.71,0,0,1,.18.51v1.44a6.6,6.6,0,0,1,1.91.47,4.47,4.47,0,0,1,1.56,1,.8.8,0,0,1,.32.64.78.78,0,0,1-.16.46.47.47,0,0,1-.37.19,1,1,0,0,1-.52-.2,6.83,6.83,0,0,0-1.6-1,4.83,4.83,0,0,0-1.81-.32,3.53,3.53,0,0,0-2.26.66A2.14,2.14,0,0,0,51.1,51a1.74,1.74,0,0,0,.46,1.26A3.17,3.17,0,0,0,52.7,53a18.73,18.73,0,0,0,1.85.55,17.13,17.13,0,0,1,2.21.68,3.56,3.56,0,0,1,1.41,1,2.7,2.7,0,0,1,.58,1.83A3.25,3.25,0,0,1,57.69,59.51Z"/><path class="cls-1" d="M22.73,66.41H21.34a.75.75,0,0,1-.75-.75V34.34a.75.75,0,0,1,.75-.75H78.66a.75.75,0,0,1,.75.75v1.47a.75.75,0,0,1-1.5,0v-.72H22.09V64.91h.64a.75.75,0,1,1,0,1.5Z"/><path class="cls-1" d="M18.73,62.41H17.34a.75.75,0,0,1-.75-.75V30.34a.75.75,0,0,1,.75-.75H74.66a.75.75,0,0,1,.75.75v1.47a.75.75,0,0,1-1.5,0v-.72H18.09V60.91h.64a.75.75,0,1,1,0,1.5Z"/></svg>