<?xml version="1.0" encoding="UTF-8"?>
<svg width="40px" height="44px" viewBox="0 0 40 44" version="1.1" xmlns="http://www.w3.org/2000/svg" xmlns:xlink="http://www.w3.org/1999/xlink">
    <!-- Generator: Sketch 49.3 (51167) - http://www.bohemiancoding.com/sketch -->
    <title>Primary-single</title>
    <desc>Created with Sketch.</desc>
    <defs>
        <path d="M19.5119792,40.7075855 C21.810356,40.5257884 24.1396314,40.5227449 26.3995831,40.1159333 C29.0412111,39.6403391 31.6295589,38.8388899 34.2256314,38.1200203 C34.9024285,37.932542 35.5433754,37.4819043 35.4920758,36.6327739 C35.3207473,33.7923971 34.5498681,31.1376725 32.4608488,29.1616435 C30.7467715,27.5400783 28.7971918,26.966687 26.3789841,27.9061072 C21.8475928,29.6664551 17.1965686,29.6063971 12.6572546,27.8643101 C10.7134188,27.1184551 9.02489227,27.3824261 7.4391628,28.538542 C5.20119662,30.1700493 4.26651546,32.6101072 3.84304686,35.2719333 C3.49504203,37.4591797 3.65607101,37.6880493 5.70527874,38.4452667 C10.1641773,40.0932087 14.8023271,40.556629 19.5119792,40.7075855 M20.9891676,44.0000203 C13.7458343,43.898571 8.11714831,43.2062812 2.78833671,40.8402812 C2.57719662,40.7463391 2.36526425,40.6526 2.15828357,40.5493246 C0.143737681,39.5439623 -0.243484541,38.9829478 0.123336715,36.7427449 C0.448563768,34.7583971 0.796964734,32.7275855 1.51535604,30.8716725 C2.93054928,27.2150348 5.64090676,24.8952957 9.4402401,24.1342232 C10.2671725,23.968658 11.2919744,24.1841362 12.07553,24.5560493 C16.9006556,26.8459623 21.7636121,27.0932957 26.5762594,24.7431217 C28.3808536,23.8617304 29.9774768,23.9272667 31.676501,24.6895565 C35.7869986,26.5339043 37.9007763,29.9257594 38.6928488,34.3091797 C38.8724961,35.3033826 38.9402353,36.3182812 39.0893802,37.3189768 C39.3126024,38.8186 38.6419454,39.7375275 37.3669841,40.3728029 C34.5599696,41.7713826 31.600443,42.708571 28.5363367,43.1817304 C25.5449213,43.6435275 22.5146845,43.8411507 20.9891676,44.0000203 Z M20.1091881,22.8626618 C13.7582865,22.8890416 8.69798444,17.8484741 8.67422243,11.4721995 C8.65086316,5.22480366 13.7715771,0.108519908 20.0528037,0.103284211 C26.3223506,0.0982498856 31.4122545,5.17868924 31.44387,11.473005 C31.4752842,17.7560439 26.419211,22.8364833 20.1091881,22.8626618 Z M28.2895634,11.2659936 C27.9909272,6.34906911 24.178735,2.95251076 19.3224238,3.27631854 C15.0543231,3.56065721 11.543989,7.55911945 11.8222865,11.8191652 C12.1295817,16.5216275 15.950433,20.0180668 20.482735,19.7446023 C24.9518059,19.4747625 28.5509455,15.5661126 28.2895634,11.2659936 Z" id="path-1"></path>
    </defs>
    <g id="Agent:-Web" stroke="none" stroke-width="1" fill="none" fill-rule="evenodd">
        <g id="icon/users/one" transform="translate(-2.000000, 0.000000)">
            <g id="one-user" transform="translate(2.200000, 0.000000)">
                <mask id="mask-2" fill="white">
                    <use xlink:href="#path-1"></use>
                </mask>
                <use id="Mask" fill="#000000" xlink:href="#path-1"></use>
                <g id="colors/primary" mask="url(#mask-2)" fill="#317DBD">
                    <g transform="translate(-2.200000, 0.000000)" id="Rectangle-4">
                        <rect x="0" y="0" width="44" height="44"></rect>
                    </g>
                </g>
            </g>
        </g>
    </g>
</svg>