<svg id="Layer_1" data-name="Layer 1" xmlns="http://www.w3.org/2000/svg" viewBox="0 0 100 100"><defs><style>.cls-1{fill:#515151;}</style></defs><title>Artboard 6</title><path class="cls-1" d="M56.67,70.06a.71.71,0,0,1-.32-.07.74.74,0,0,1-.43-.68v-9.6H20.18a.75.75,0,0,1-.75-.75V41a.75.75,0,0,1,.75-.75H55.92v-9.6a.74.74,0,0,1,.42-.68.77.77,0,0,1,.8.09L80.29,48.89a.72.72,0,0,1,.28.57.74.74,0,0,1-.26.58L57.15,69.88A.72.72,0,0,1,56.67,70.06ZM20.93,58.21H56.67a.76.76,0,0,1,.75.75v8.72L78.65,49.49,57.42,32.26V41a.76.76,0,0,1-.75.75H20.93Z"/><path class="cls-1" d="M22.94,49.53a.74.74,0,0,1-.75-.75v-5a.74.74,0,0,1,.75-.75H44.87a.75.75,0,0,1,0,1.5H23.69v4.24A.75.75,0,0,1,22.94,49.53Z"/><path class="cls-1" d="M59.41,63.58a.76.76,0,0,1-.75-.75V59a.75.75,0,1,1,1.5,0v3.82A.76.76,0,0,1,59.41,63.58Z"/></svg>