<svg xmlns="http://www.w3.org/2000/svg" xmlns:xlink="http://www.w3.org/1999/xlink" width="100" height="100" viewBox="0 0 100 100">
    <defs>
        <path id="a" d="M8.08 0h78.84C91.348 0 95 3.652 95 8.08v78.85c0 4.428-3.652 8.07-8.08 8.07H8.08C3.652 95 0 91.358 0 86.93V8.08C0 3.652 3.652 0 8.08 0zm-.26 5C6.218 5 5 6.206 5 7.81v79.38C5 88.793 6.217 90 7.82 90h79.36c1.603 0 2.82-1.206 2.82-2.81V7.81C90 6.207 88.783 5 87.18 5H7.82zM17 80v-4h63v4H17zm0-26v-4h17v4H17zm0-25v-4h17v4H17zm27.714 13h32.572C78.784 42 80 43.176 80 44.625v15.75C80 61.824 78.784 63 77.286 63H44.714C43.216 63 42 61.824 42 60.375v-15.75C42 43.176 43.216 42 44.714 42zM46 59h30V46H46v13zm-1.286-42h32.572C78.784 17 80 18.176 80 19.625v15.75C80 36.824 78.784 38 77.286 38H44.714C43.216 38 42 36.824 42 35.375v-15.75C42 18.176 43.216 17 44.714 17zM46 34h30V21H46v13z"/>
    </defs>
    <g fill="none" fill-rule="evenodd" transform="translate(3 3)">
        <mask id="b" fill="#fff">
            <use xlink:href="#a"/>
        </mask>
        <use fill="#000" xlink:href="#a"/>
        <g fill="#317DBD" mask="url(#b)">
            <path d="M-3-3H97V97H-3z"/>
        </g>
    </g>
</svg>
