<svg xmlns="http://www.w3.org/2000/svg" xmlns:xlink="http://www.w3.org/1999/xlink" width="100" height="100" viewBox="0 0 100 100">
    <defs>
        <path id="a" d="M78.084 52.542H9.5c-2.481 0-4.5-2.02-4.5-4.5V16.31l38.792 26.762L82.584 16.31v31.732c0 2.481-2.019 4.5-4.5 4.5M9.5 5.002h68.584c2.481 0 4.5 2.018 4.5 4.5v.313l-1.126.956-37.666 25.838-37.666-25.84L5 9.813V9.5A4.505 4.505 0 0 1 9.5 5m68.584-5H9.5C4.262 0 0 4.263 0 9.5v38.544c0 5.237 4.262 9.5 9.5 9.5h68.584c5.238 0 9.5-4.263 9.5-9.5V9.5c0-5.24-4.262-9.5-9.5-9.5"/>
    </defs>
    <g fill="none" fill-rule="evenodd" transform="translate(6 21)">
        <mask id="b" fill="#fff">
            <use xlink:href="#a"/>
        </mask>
        <use fill="#000" xlink:href="#a"/>
        <g fill="#317DBD" mask="url(#b)">
            <path d="M-6-21H94V79H-6z"/>
        </g>
    </g>
</svg>
