<?xml version="1.0" encoding="UTF-8"?>
<svg width="44px" height="44px" viewBox="0 0 44 44" version="1.1" xmlns="http://www.w3.org/2000/svg" xmlns:xlink="http://www.w3.org/1999/xlink">
    <!-- Generator: Sketch 49.3 (51167) - http://www.bohemiancoding.com/sketch -->
    <title>Primary-light-double</title>
    <desc>Created with Sketch.</desc>
    <defs>
        <path d="M29.6026902,39.005335 C27.357442,39.6159875 25.1187037,40.2967883 22.8337106,40.7007876 C20.8790118,41.0463586 18.8645243,41.0489439 16.8764192,41.2033737 C12.8030737,41.0751418 8.79123009,40.6814838 4.93476877,39.2816195 C3.16234867,38.638392 3.02306996,38.443976 3.32389827,36.585993 C3.69016873,34.3248725 4.49860198,32.2521357 6.43428482,30.8662321 C7.80600024,29.8841554 9.26628528,29.659922 10.947566,30.2934976 C14.8737524,31.7733345 18.8965601,31.8243515 22.8160652,30.3290027 C24.9076443,29.5310007 26.5938931,30.0180749 28.0764491,31.3955332 C29.8831321,33.0740949 30.5500595,35.3293554 30.6982466,37.7419755 C30.7424457,38.4631073 30.1880719,38.8460793 29.6026902,39.005335 M33.466518,35.7681703 C33.6219003,36.612708 33.6806612,37.4748259 33.8094897,38.3248789 C34.0025612,39.598752 33.4224902,40.3793462 32.3199099,40.9189885 C29.8918691,42.107029 27.3320874,42.9031351 24.6818517,43.3050661 C22.0946597,43.6973453 19.4737188,43.8652187 18.154083,44 C11.8891107,43.9138227 7.02086577,43.325921 2.41181972,41.3160936 C2.22902712,41.2362934 2.04589189,41.1566656 1.86686821,41.0689371 C0.124256839,40.2149199 -0.210663062,39.7383593 0.106782758,37.8353918 C0.387909897,36.1497634 0.68925215,34.4246659 1.31060994,32.848138 C2.53482355,29.7419628 4.87892023,27.7714322 8.16524681,27.12493 C8.88031365,26.9842886 9.76669501,27.1673292 10.4444153,27.4830829 C14.6178085,29.4284497 18.8239228,29.63855 22.9865231,27.6421663 C24.5475411,26.8934577 25.9285075,26.9491283 27.3978722,27.5966646 C30.9531626,29.1631959 32.7814312,32.0446207 33.466518,35.7681703 Z M17.3049128,25.722988 C11.8295602,25.7457417 7.4667086,21.3980557 7.44622247,15.8984439 C7.42608356,10.5096477 11.8410185,6.09665348 17.2561281,6.09231118 C22.6615154,6.08779519 27.0497142,10.4698722 27.0767975,15.898965 C27.1038809,21.318331 22.7450224,25.7004081 17.3049128,25.722988 Z M16.6264399,8.82900331 C12.9467488,9.07443019 9.92035688,12.5230861 10.1602877,16.1975417 C10.4252185,20.2535987 13.719319,23.269414 17.6267882,23.0335401 C21.479917,22.8007928 24.5826978,19.4294298 24.3573504,15.7204096 C24.0998849,11.4793705 20.8134233,8.54988016 16.6264399,8.82900331 Z M42.5696896,32.0625631 C42.7621309,33.3133477 42.1839532,34.0797938 41.0849716,34.6094862 C39.3354121,35.4529323 37.5161844,36.0911015 35.6447055,36.5309323 C35.5951865,36.1205477 35.5398617,35.7000092 35.4596067,35.27084 C35.3530554,34.6998554 35.2208907,34.1518862 35.0646495,33.6254092 C36.1713151,33.3373785 37.2731995,33.0261631 38.3766207,32.7305169 C38.9600918,32.5741477 39.5126562,32.1982862 39.4686013,31.4902246 C39.3208979,29.1211631 38.6561472,26.9069477 36.8553611,25.25864 C35.3776441,23.9061477 33.696899,23.4280708 31.6121467,24.21144 C29.0345944,25.1802862 26.4124749,25.4828708 23.8026498,25.16184 C24.3613614,24.77684 24.89002,24.3419169 25.3794049,23.8547015 C25.6717381,23.5634554 25.9440929,23.2581631 26.199543,22.9418708 C28.0645331,22.8904246 29.927645,22.4494092 31.7820483,21.5733015 C33.3379712,20.8381631 34.7144303,20.8929938 36.1789991,21.5286246 C39.722856,23.0669323 41.5451574,25.8961323 42.2280081,29.5521938 C42.3827125,30.3812554 42.4412816,31.2277477 42.5696896,32.0625631 Z M25.0053313,2.68628601 C23.28953,2.80136858 21.7210732,3.63627129 20.5751733,4.86927443 C19.620652,4.57278764 18.6219272,4.40655727 17.6,4.37518661 C19.3098736,1.74857621 22.2676028,0.00273104817 25.6197748,3.16510875e-06 C30.8926755,-0.00425915217 35.1734566,4.29693046 35.199877,9.62602052 C35.2222327,14.1159455 32.1947267,17.8758209 28.0592577,18.9538462 C28.3385348,17.9973822 28.4897746,16.9974425 28.5095899,15.9751683 C30.9976796,14.8016671 32.7144971,12.2234767 32.5471679,9.45092452 C32.2958355,5.28783399 29.0898224,2.41230425 25.0053313,2.68628601 Z" id="path-1"></path>
    </defs>
    <g id="Agent:-Web" stroke="none" stroke-width="1" fill="none" fill-rule="evenodd">
        <g id="icon/users/two">
            <g id="two-user" transform="translate(0.733333, 0.000000)">
                <mask id="mask-2" fill="white">
                    <use xlink:href="#path-1"></use>
                </mask>
                <use id="Mask" fill="#000000" xlink:href="#path-1"></use>
                <g id="colors/primary-light" mask="url(#mask-2)" fill="#B6DBFF">
                    <g transform="translate(-0.733333, 0.000000)" id="Rectangle-4">
                        <rect x="0" y="0" width="44" height="44"></rect>
                    </g>
                </g>
            </g>
        </g>
    </g>
</svg>