<svg xmlns="http://www.w3.org/2000/svg" xmlns:xlink="http://www.w3.org/1999/xlink" width="60" height="60" viewBox="0 0 60 60">
    <defs>
        <path id="a" d="M26.607 55.51c3.134-.248 6.31-.252 9.392-.806 3.603-.649 7.132-1.742 10.672-2.722.923-.256 1.797-.87 1.727-2.028-.233-3.873-1.285-7.494-4.133-10.188-2.338-2.211-4.996-2.993-8.294-1.712-6.179 2.4-12.521 2.318-18.711-.057-2.65-1.017-4.953-.657-7.116.92-3.051 2.224-4.326 5.551-4.903 9.181-.475 2.983-.255 3.295 2.539 4.327 6.08 2.248 12.405 2.88 18.827 3.085M28.622 60c-9.878-.138-17.553-1.082-24.82-4.309-.288-.128-.577-.256-.859-.396C.196 53.924-.332 53.159.168 50.104c.444-2.706.919-5.475 1.898-8.006 1.93-4.987 5.626-8.15 10.807-9.188 1.128-.225 2.525.068 3.594.576 6.58 3.122 13.21 3.46 19.773.255 2.461-1.202 4.638-1.113 6.955-.073 5.605 2.515 8.488 7.14 9.568 13.117.245 1.356.337 2.74.54 4.105.305 2.044-.61 3.298-2.348 4.164a40.911 40.911 0 0 1-12.042 3.83c-4.079.63-8.211.9-10.291 1.116zm-1.2-28.824c-8.66.036-15.561-6.837-15.594-15.532C11.797 7.124 18.78.148 27.345.14c8.55-.007 15.49 6.92 15.533 15.504.043 8.568-6.852 15.496-15.456 15.531zm11.155-15.813C38.169 8.658 32.97 4.026 26.349 4.468c-5.82.387-10.607 5.84-10.228 11.649.42 6.412 5.63 11.18 11.81 10.807 6.094-.368 11.002-5.697 10.646-11.561z"/>
    </defs>
    <g fill="none" fill-rule="evenodd" transform="translate(3)">
        <mask id="b" fill="#fff">
            <use xlink:href="#a"/>
        </mask>
        <use fill="#000" xlink:href="#a"/>
        <g fill="#317DBD" mask="url(#b)">
            <path d="M-3 0h60v60H-3z"/>
        </g>
    </g>
</svg>
