<svg xmlns="http://www.w3.org/2000/svg" width="125" height="117" viewBox="0 0 125 117">
    <path fill="#317DBD" fill-rule="evenodd" d="M69.044 41.894a10.32 10.32 0 0 0-2.969-.416c-5.226 0-9.443 4.928-9.443 10.691 0 2.613 1.304 4.514 3.92 4.514 3.445 0 6.591-4.394 7.247-8.079l1.245-6.71zM61.738 69.93c-9.738 0-17.993-7.13-17.993-18.532 0-12.236 8.49-22.808 21.678-22.808 10.334 0 17.283 7.245 17.283 17.164 0 8.91-4.99 14.139-10.574 14.139-2.376 0-4.574-1.604-4.392-5.23h-.24c-2.078 3.506-4.812 5.23-8.375 5.23-3.444 0-6.414-2.794-6.414-7.487 0-7.363 5.823-14.073 14.078-14.073 2.552 0 4.81.534 6.353 1.247l-2.016 10.75c-.894 4.513-.182 6.594 1.782 6.652 3.027.062 6.413-3.979 6.413-10.87 0-8.61-5.167-14.789-14.375-14.789-9.68 0-17.817 7.664-17.817 19.718 0 9.918 6.472 16.036 15.264 16.036 3.386 0 6.532-.712 8.969-2.078l.95 2.555c-3.268 1.721-6.592 2.376-10.574 2.376zm58.54-23.954L62.617 94.8l-.048-.04-24.971-20.735-33.839-28.1v66.935H120.28V45.976h-.001zM5.035 42.102l8.227 6.831V36.71l-8.227 5.392zm11.985 9.866l22.97 19.158 22.502 18.768.05-.043 44.472-37.872V15.223H17.019V51.968zm34.754-40.503h21.11L62.395 4.502l-10.622 6.963zm58.995 37.64l8.266-7-8.266-5.488v12.487zm13.268-8.191v75.703H0v-75.71l13.26-8.692v-20.75h31.657L62.411 0l17.268 11.465h31.088v20.64l13.269 8.809zM62.539 89.85l-22.55-18.725 22.502 18.768.048-.043zM37.597 74.025l24.97 20.736-.057.05-24.913-20.786z"/>
</svg>
