<svg xmlns="http://www.w3.org/2000/svg" xmlns:xlink="http://www.w3.org/1999/xlink" width="60" height="60" viewBox="0 0 60 60">
    <defs>
        <path id="a" d="M40.367 53.19c-3.061.832-6.114 1.76-9.23 2.311-2.666.471-5.413.475-8.124.685-5.554-.174-11.025-.711-16.284-2.62-2.417-.877-2.607-1.142-2.196-3.676.499-3.083 1.601-5.91 4.241-7.8 1.87-1.339 3.862-1.645 6.154-.78 5.354 2.017 10.84 2.087 16.185.048 2.852-1.088 5.151-.424 7.173 1.454 2.464 2.289 3.373 5.364 3.575 8.654.06.984-.695 1.506-1.494 1.723m5.27-4.414c.211 1.151.291 2.327.467 3.486.263 1.737-.528 2.802-2.031 3.538a35.851 35.851 0 0 1-10.416 3.253c-3.528.535-7.102.764-8.901.948-8.544-.118-15.182-.92-21.467-3.66-.25-.109-.5-.217-.743-.337-2.377-1.164-2.833-1.814-2.4-4.41.383-2.298.794-4.65 1.641-6.8 1.67-4.236 4.866-6.923 9.347-7.804.976-.192 2.184.057 3.108.488 5.691 2.653 11.427 2.94 17.103.217 2.129-1.021 4.012-.945 6.016-.062 4.848 2.136 7.341 6.065 8.275 11.143zm-22.04-13.698c-7.466.03-13.415-5.898-13.443-13.397-.028-7.349 5.993-13.366 13.377-13.372 7.371-.006 13.355 5.97 13.392 13.372.037 7.39-5.907 13.366-13.325 13.397zm-.925-23.037c-5.017.334-9.144 5.037-8.817 10.048.361 5.53 4.853 9.643 10.182 9.321 5.254-.317 9.485-4.914 9.178-9.972-.352-5.783-4.833-9.778-10.543-9.397zM58.05 43.722c.262 1.705-.526 2.75-2.025 3.473a36.033 36.033 0 0 1-7.419 2.62 26.64 26.64 0 0 0-.252-1.718 22.182 22.182 0 0 0-.539-2.244c1.51-.393 3.012-.817 4.517-1.22.795-.214 1.549-.726 1.489-1.692-.202-3.23-1.108-6.25-3.564-8.497-2.015-1.845-4.307-2.497-7.15-1.428-3.514 1.32-7.09 1.733-10.649 1.296a15.54 15.54 0 0 0 2.15-1.783c.399-.397.77-.813 1.119-1.245 2.543-.07 5.083-.671 7.612-1.866 2.122-1.002 3.999-.928 5.996-.06 4.833 2.097 7.317 5.955 8.249 10.94.21 1.131.29 2.285.466 3.424zM34.098 3.663c-2.34.157-4.478 1.296-6.04 2.977A15.237 15.237 0 0 0 24 5.966C26.332 2.384 30.365.004 34.936 0 42.126-.006 47.964 5.86 48 13.126a13.042 13.042 0 0 1-9.737 12.72c.38-1.304.587-2.668.614-4.062 3.393-1.6 5.734-5.116 5.506-8.896-.343-5.677-4.715-9.598-10.285-9.225z"/>
    </defs>
    <g fill="none" fill-rule="evenodd" transform="translate(1)">
        <mask id="b" fill="#fff">
            <use xlink:href="#a"/>
        </mask>
        <use fill="#000" xlink:href="#a"/>
        <g fill="#317DBD" mask="url(#b)">
            <path d="M-1 0h60v60H-1z"/>
        </g>
    </g>
</svg>
