<svg id="Layer_1" data-name="Layer 1" xmlns="http://www.w3.org/2000/svg" viewBox="0 0 100 100"><defs><style>.cls-1{fill:#4ad7d5;}.cls-2{fill:#515151;}</style></defs><title>Artboard 12</title><circle class="cls-1" cx="51.07" cy="32.42" r="10.96"/><path class="cls-2" d="M30.32,55.72a3.16,3.16,0,0,1-3.16-3.15.75.75,0,0,1,1.5,0,1.66,1.66,0,0,0,3.31,0,.75.75,0,1,1,1.5,0A3.15,3.15,0,0,1,30.32,55.72Z"/><path class="cls-2" d="M32.67,49.57a7.67,7.67,0,0,1-3.19-.69.83.83,0,0,1-.31-.28c-.2-.33-5-8.18-1.71-13.15,1.95-2.44,8.6.78,10.6,1.82a.74.74,0,0,1,.31.32c.13.23,3,5.85-.52,9.7A6.87,6.87,0,0,1,32.67,49.57Zm-2.33-2a5.68,5.68,0,0,0,6.4-1.35c2.49-2.72.84-6.83.4-7.78-3.53-1.81-7.72-3.1-8.46-2.16C26.24,40.06,29.65,46.42,30.34,47.62Z"/><path class="cls-2" d="M43.41,44.92a.75.75,0,0,1-.29-1.44c8-3.41,15.76-.14,16.08,0a.75.75,0,0,1-.59,1.38c-.08,0-7.47-3.15-14.91,0A.72.72,0,0,1,43.41,44.92Z"/><path class="cls-2" d="M37.84,38.7a.74.74,0,0,1-.71-.52.75.75,0,0,1,.48-1,29.67,29.67,0,0,1,3.4-.86.74.74,0,0,1,.88.59.75.75,0,0,1-.6.88,29.19,29.19,0,0,0-3.22.82A.62.62,0,0,1,37.84,38.7Z"/><path class="cls-2" d="M60.06,79.29h-6.7a.75.75,0,0,1-.74-.61l-.83-4.32a30.82,30.82,0,0,1-9.3.08l-.81,4.24a.75.75,0,0,1-.74.61h-6.7a.75.75,0,0,1-.74-.61L32,70.78a20.78,20.78,0,0,1-7.81-8h-2a3.57,3.57,0,0,1-3.57-3.57V54.34a3.57,3.57,0,0,1,3.57-3.57H23a18.18,18.18,0,0,1,4.35-7.28.75.75,0,0,1,1.06,0,.75.75,0,0,1,0,1.06,16.3,16.3,0,0,0-4.13,7.18.76.76,0,0,1-.73.57H22.21a2.06,2.06,0,0,0-2.07,2.07V59.2a2.07,2.07,0,0,0,2.07,2.07h2.43a.77.77,0,0,1,.67.42,19.29,19.29,0,0,0,7.73,8,.73.73,0,0,1,.36.51l1.46,7.62h5.46l.83-4.34a.74.74,0,0,1,.86-.6,29.09,29.09,0,0,0,10.24-.1.76.76,0,0,1,.88.6L54,77.79h5.46l1.53-8a.8.8,0,0,1,.34-.5c5.46-3.43,8.58-8.53,8.58-14s-3.16-10.6-8.67-14a.75.75,0,0,1-.24-1A.76.76,0,0,1,62,40c6,3.72,9.37,9.3,9.37,15.31s-3.27,11.36-9,15.08L60.8,78.68A.75.75,0,0,1,60.06,79.29Z"/><path class="cls-2" d="M79.61,57a7.8,7.8,0,0,1-2.89-.6,6.28,6.28,0,0,1-2.46-1.86,7.28,7.28,0,0,1-3.86-.43.76.76,0,0,1-.39-1,.75.75,0,0,1,1-.39,5.49,5.49,0,0,0,2.47.38,4.52,4.52,0,0,1-.24-2.39,2.86,2.86,0,0,1,2.24-2.54,2.53,2.53,0,0,1,1.7.45,2.9,2.9,0,0,1,1.28,2.79,3.33,3.33,0,0,1-1.86,2.36c-.22.12-.45.22-.68.32a4.78,4.78,0,0,0,1.41.92,5.44,5.44,0,0,0,3.14.39.76.76,0,0,1,.9.57.74.74,0,0,1-.57.89A5.06,5.06,0,0,1,79.61,57Zm-3.9-7.34h-.08c-.54.06-.85.81-.93,1.29A3.13,3.13,0,0,0,75,52.85a5.87,5.87,0,0,0,.9-.37A1.93,1.93,0,0,0,77,51.21a1.41,1.41,0,0,0-.64-1.32A1.18,1.18,0,0,0,75.71,49.68Z"/><path class="cls-2" d="M47.72,43.61a.62.62,0,0,1-.23,0,11.66,11.66,0,1,1,7.28,0,.75.75,0,0,1-.47-1.43,10.16,10.16,0,1,0-6.35,0,.75.75,0,0,1-.23,1.46Z"/><path class="cls-2" d="M53.84,36.41a3.5,3.5,0,0,1-2,.9v1a.6.6,0,0,1-.16.44.54.54,0,0,1-.42.16.53.53,0,0,1-.41-.16.6.6,0,0,1-.16-.44v-.94A6.35,6.35,0,0,1,49.07,37a4,4,0,0,1-1.3-.73.65.65,0,0,1-.26-.55.75.75,0,0,1,.13-.42.42.42,0,0,1,.33-.17.9.9,0,0,1,.46.18,4.73,4.73,0,0,0,2.66.89,2.61,2.61,0,0,0,1.56-.41,1.36,1.36,0,0,0,.56-1.16,1,1,0,0,0-.3-.74,2.14,2.14,0,0,0-.74-.44A11.55,11.55,0,0,0,51,33.09a12.05,12.05,0,0,1-1.67-.52,2.72,2.72,0,0,1-1.1-.8,2.17,2.17,0,0,1-.46-1.45,2.55,2.55,0,0,1,.8-1.89,3.54,3.54,0,0,1,2.12-.92v-1a.63.63,0,0,1,.15-.44.63.63,0,0,1,.84,0,.63.63,0,0,1,.15.44v1a4.72,4.72,0,0,1,1.34.34,3.79,3.79,0,0,1,1.13.71.69.69,0,0,1,.27.55.6.6,0,0,1-.14.41.4.4,0,0,1-.32.18.9.9,0,0,1-.47-.18,5.25,5.25,0,0,0-1.12-.67,3.46,3.46,0,0,0-1.26-.22,2.42,2.42,0,0,0-1.51.44,1.44,1.44,0,0,0-.56,1.19,1.11,1.11,0,0,0,.32.82,2.21,2.21,0,0,0,.78.49,13.14,13.14,0,0,0,1.27.36,11,11,0,0,1,1.62.5,2.66,2.66,0,0,1,1,.77,2.06,2.06,0,0,1,.44,1.38A2.43,2.43,0,0,1,53.84,36.41Z"/></svg>