<svg id="Layer_1" data-name="Layer 1" xmlns="http://www.w3.org/2000/svg" viewBox="0 0 100 100"><defs><style>.cls-1{fill:#4ad7d5;}.cls-2{fill:#515151;}</style></defs><title>Artboard 7</title><polygon class="cls-1" points="53.79 36.28 55.14 38.56 61.56 33.52 59.51 31.4 53.79 36.28"/><polygon class="cls-1" points="55.52 61.74 53.59 63.56 59.93 68.71 61.54 66.24 55.52 61.74"/><path class="cls-2" d="M35.8,60.41a3.57,3.57,0,0,1-3.31-2.36c-1.81-3.83-.7-11.32,2.18-15.29a6.8,6.8,0,0,0-4.77-1.88,5.14,5.14,0,0,0-3.31,1.61.75.75,0,0,1-1.15-1,6.6,6.6,0,0,1,4.33-2.15c2.08-.15,4.2.73,6.3,2.61,3.49,3.12,4.71,11.45,3.12,15.63C38.5,59.42,37.3,60.41,35.8,60.41Zm-.06-16.58c-2.67,3.84-3.32,10.57-1.9,13.58a2.16,2.16,0,0,0,2,1.5c.85,0,1.52-.61,2-1.83C39.05,53.77,38.21,47,35.74,43.83Z"/><path class="cls-2" d="M46.69,60.41a3.57,3.57,0,0,1-3.31-2.36c-1.81-3.83-.7-11.32,2.18-15.29-3.05-2.52-5.42-2.07-6.89-1.22a.74.74,0,0,1-1-.27.75.75,0,0,1,.27-1c1.6-.93,4.92-2,9,1.75,3.49,3.12,4.71,11.45,3.12,15.63C49.39,59.42,48.19,60.41,46.69,60.41Zm-.06-16.58C44,47.67,43.31,54.4,44.73,57.41a2.16,2.16,0,0,0,2,1.5c.85,0,1.52-.61,2-1.83C49.94,53.77,49.1,47,46.63,43.83Z"/><path class="cls-2" d="M57.46,43.3a.74.74,0,0,1-.5-.2c-3.25-2.9-5.76-2.45-7.29-1.56a.74.74,0,0,1-1-.27.75.75,0,0,1,.27-1c1.6-.93,4.92-2,9,1.75a.75.75,0,0,1-.5,1.31Z"/><path class="cls-2" d="M66.72,43.62a.77.77,0,0,1,.34-.64.76.76,0,0,1,1,.23l0,0a.75.75,0,0,1-1.27.81v0A.77.77,0,0,1,66.72,43.62Z"/><path class="cls-2" d="M56,71.52A4.51,4.51,0,0,1,51.46,67a4.56,4.56,0,0,1,.62-2.28l.06-.08.19-.3c5.07-7.8,6.81-10.58,7.37-11.54a6.2,6.2,0,0,0,1-2.8,6.16,6.16,0,0,0-1-2.86c-1-1.73-7.51-11.76-7.58-11.86A4.59,4.59,0,0,1,51.46,33a4.49,4.49,0,0,1,7.67-3.17c.35.35,11.48,12.43,13.26,14.46A8.88,8.88,0,0,1,74.74,50a8.84,8.84,0,0,1-2.36,5.74C69.64,58.88,59.93,69.4,59.13,70.2A4.47,4.47,0,0,1,56,71.52Zm-2.6-6a3,3,0,0,0,.49,3.58,3.06,3.06,0,0,0,4.23,0c.8-.8,10.45-11.26,13.19-14.39a7.39,7.39,0,0,0,2-4.75,7.39,7.39,0,0,0-2-4.75c-1.79-2-12.84-14-13.19-14.39a3.06,3.06,0,0,0-4.23,0A3,3,0,0,0,53,33a3.09,3.09,0,0,0,.41,1.52c.07.1,6.56,10.12,7.62,11.91A7.61,7.61,0,0,1,62.2,50,7.53,7.53,0,0,1,61,53.6C60.17,55,57.61,59,53.59,65.19l-.23.35Z"/><path class="cls-2" d="M54.16,36.79a.75.75,0,0,1-.58-.28.75.75,0,0,1,.11-1l5.38-4.4a.75.75,0,1,1,1,1.16l-5.38,4.4A.78.78,0,0,1,54.16,36.79Z"/><path class="cls-2" d="M55.37,39.41a.72.72,0,0,1-.58-.28.75.75,0,0,1,.11-1.05l6.18-5A.75.75,0,1,1,62,34.22l-6.18,5A.75.75,0,0,1,55.37,39.41Z"/><path class="cls-2" d="M61.55,67.11a.68.68,0,0,1-.47-.17l-6.18-5a.75.75,0,0,1,.94-1.16l6.18,5a.75.75,0,0,1,.11,1A.72.72,0,0,1,61.55,67.11Z"/><path class="cls-2" d="M59.55,69.11a.72.72,0,0,1-.48-.17l-5.38-4.4a.75.75,0,0,1-.11-1.05.76.76,0,0,1,1.06-.11L60,67.78a.75.75,0,0,1,.11,1A.72.72,0,0,1,59.55,69.11Z"/><path class="cls-2" d="M65.79,42.64a.76.76,0,0,1-.55-.25l-4.39-4.81a.75.75,0,0,1,1.11-1l4.39,4.81a.76.76,0,0,1-.56,1.26Z"/></svg>