<svg id="Layer_1" data-name="Layer 1" xmlns="http://www.w3.org/2000/svg" viewBox="0 0 100 100"><defs><style>.cls-1{fill:#4ad7d5;}.cls-2{fill:#515151;}</style></defs><title>Artboard 9</title><polygon class="cls-1" points="52.01 65.07 52.01 48.27 48.06 48.27 48.06 65.07 39.04 66.87 39.04 73.08 61.14 73.08 61.14 66.87 52.01 65.07"/><path class="cls-1" d="M61.11,40.88c0,4.87-5,8.82-11.16,8.82s-11.17-4-11.17-8.82Z"/><path class="cls-2" d="M65.26,27.21H34.74a2.47,2.47,0,1,1,0-4.93H65.26a2.47,2.47,0,1,1,0,4.93ZM34.74,23.78a1,1,0,1,0,0,1.93H65.26a1,1,0,1,0,0-1.93Z"/><path class="cls-2" d="M65.26,77.72H34.74a2.47,2.47,0,1,1,0-4.93H65.26a2.47,2.47,0,1,1,0,4.93ZM34.74,74.29a1,1,0,1,0,0,1.93H65.26a1,1,0,1,0,0-1.93Z"/><path class="cls-2" d="M65.26,74.29a.75.75,0,0,1-.75-.75V67.65a.75.75,0,0,1,1.5,0v5.89A.74.74,0,0,1,65.26,74.29Z"/><path class="cls-2" d="M65.26,65.63a.75.75,0,0,1-.75-.75V63.82a.75.75,0,0,1,1.5,0v1.06A.74.74,0,0,1,65.26,65.63Z"/><path class="cls-2" d="M65.26,61.82a.76.76,0,0,1-.75-.75V26.46a.75.75,0,1,1,1.5,0V61.07A.75.75,0,0,1,65.26,61.82Z"/><path class="cls-2" d="M34.74,74.29a.74.74,0,0,1-.75-.75V26.46a.75.75,0,0,1,1.5,0V73.54A.75.75,0,0,1,34.74,74.29Z"/><path class="cls-2" d="M38.7,74.27a.76.76,0,0,1-.75-.75V60.27A11.13,11.13,0,0,1,45.67,50,11.14,11.14,0,0,1,38,39.76V26.51a.75.75,0,0,1,1.5,0V39.76c0,4.49,3.56,8.4,8.46,9.31a.76.76,0,0,1,.62.74v.42a.74.74,0,0,1-.62.73c-4.9.91-8.46,4.83-8.46,9.31V73.52A.75.75,0,0,1,38.7,74.27Z"/><path class="cls-2" d="M61.45,74.28a.75.75,0,0,1-.75-.75V60.27c0-4.47-3.55-8.39-8.44-9.3a.76.76,0,0,1-.61-.71l0-.43a.75.75,0,0,1,.62-.76c4.89-.91,8.45-4.83,8.45-9.31V26.6a.75.75,0,0,1,1.5,0V39.76A11.14,11.14,0,0,1,54.48,50,11.13,11.13,0,0,1,62.2,60.27V73.53A.76.76,0,0,1,61.45,74.28Z"/></svg>