<svg id="Layer_1" data-name="Layer 1" xmlns="http://www.w3.org/2000/svg" viewBox="0 0 100 100"><defs><style>.cls-1{fill:#515151;}.cls-2{fill:#4ad7d5;}</style></defs><title>Artboard 8</title><path class="cls-1" d="M78.66,66.41H71.22a.75.75,0,0,1,0-1.5h6.69V35.09H22.09V64.91H65.42a.75.75,0,0,1,0,1.5H21.34a.75.75,0,0,1-.75-.75V34.34a.75.75,0,0,1,.75-.75H78.66a.75.75,0,0,1,.75.75V65.66A.75.75,0,0,1,78.66,66.41Z"/><path class="cls-1" d="M69.61,62.9H30.37a.75.75,0,0,1-.75-.75,4.72,4.72,0,0,0-4.71-4.73.78.78,0,0,1-.79-.75V43.36a.75.75,0,0,1,.75-.75h0a4.72,4.72,0,0,0,4.75-4.71.8.8,0,0,1,.75-.8H69.61a.74.74,0,0,1,.75.75,4.71,4.71,0,0,0,4.7,4.76.88.88,0,0,1,.57.2.78.78,0,0,1,.25.55V56.67a.74.74,0,0,1-.75.75h0a4.72,4.72,0,0,0-4.77,4.71A.77.77,0,0,1,69.61,62.9ZM31.08,61.4H68.9A6.24,6.24,0,0,1,74.38,56V44.08A6.23,6.23,0,0,1,68.9,38.6H31.08a6.24,6.24,0,0,1-5.46,5.47V56A6.21,6.21,0,0,1,31.08,61.4Z"/><path class="cls-1" d="M30.62,52.84a2.67,2.67,0,1,1,2.67-2.67A2.68,2.68,0,0,1,30.62,52.84Zm0-3.84a1.17,1.17,0,1,0,1.17,1.17A1.17,1.17,0,0,0,30.62,49Z"/><path class="cls-1" d="M69.38,52.84a2.67,2.67,0,1,1,2.67-2.67A2.68,2.68,0,0,1,69.38,52.84Zm0-3.84a1.17,1.17,0,1,0,1.17,1.17A1.17,1.17,0,0,0,69.38,49Z"/><path class="cls-2" d="M42.92,62.13A14.34,14.34,0,0,1,36,50a14,14,0,0,1,7.1-12.17L57,37.92a14,14,0,0,1,0,24.21Z"/><path class="cls-1" d="M42.92,62.88a.74.74,0,0,1-.39-.11A15,15,0,0,1,35.28,50a14.76,14.76,0,0,1,7.48-12.82.79.79,0,0,1,.37-.1h0L57,37.17a.79.79,0,0,1,.37.1,14.72,14.72,0,0,1,0,25.5.76.76,0,0,1-.38.11Zm.41-24.26A13.22,13.22,0,0,0,36.78,50a13.51,13.51,0,0,0,6.35,11.35H56.79a13.23,13.23,0,0,0,0-22.71Z"/><path class="cls-1" d="M53.69,55.51a4.75,4.75,0,0,1-2.8,1.21v1.44a.71.71,0,0,1-.18.51.66.66,0,0,1-.48.19.63.63,0,0,1-.47-.19.71.71,0,0,1-.18-.51V56.74a8.27,8.27,0,0,1-2.21-.45,5.13,5.13,0,0,1-1.82-1.07.81.81,0,0,1-.15-1.1.43.43,0,0,1,.35-.19,1.12,1.12,0,0,1,.55.2,6.49,6.49,0,0,0,3.77,1.32,3.79,3.79,0,0,0,2.3-.62,2.08,2.08,0,0,0,.83-1.76,1.45,1.45,0,0,0-.43-1.1,2.9,2.9,0,0,0-1.06-.66A17.93,17.93,0,0,0,50,50.82a17.12,17.12,0,0,1-2.29-.72A3.79,3.79,0,0,1,46.17,49a2.93,2.93,0,0,1-.62-2,3.44,3.44,0,0,1,.5-1.83,3.85,3.85,0,0,1,1.42-1.32,5.16,5.16,0,0,1,2.09-.62V41.84a.68.68,0,0,1,.19-.5.62.62,0,0,1,.47-.2.63.63,0,0,1,.47.19.71.71,0,0,1,.18.51v1.44a6.6,6.6,0,0,1,1.91.47,4.47,4.47,0,0,1,1.56,1,.8.8,0,0,1,.32.64.78.78,0,0,1-.16.46.47.47,0,0,1-.37.19,1,1,0,0,1-.52-.2,6.83,6.83,0,0,0-1.6-1,4.83,4.83,0,0,0-1.81-.32,3.53,3.53,0,0,0-2.26.66A2.14,2.14,0,0,0,47.1,47a1.74,1.74,0,0,0,.46,1.26A3.17,3.17,0,0,0,48.7,49a18.73,18.73,0,0,0,1.85.55,17.13,17.13,0,0,1,2.21.68,3.56,3.56,0,0,1,1.41,1,2.7,2.7,0,0,1,.58,1.83A3.25,3.25,0,0,1,53.69,55.51Z"/></svg>