<svg id="Layer_1" data-name="Layer 1" xmlns="http://www.w3.org/2000/svg" viewBox="0 0 100 100"><defs><style>.cls-1{fill:#515151;}</style></defs><title>Artboard 13</title><path class="cls-1" d="M51.27,73.67H48.73a3.13,3.13,0,0,1-3.13-3.13v-3a.75.75,0,0,1,1.5,0v3a1.63,1.63,0,0,0,1.63,1.63h2.54a1.63,1.63,0,0,0,1.63-1.63V53.65a.76.76,0,0,1,.75-.75H70.54a1.63,1.63,0,0,0,1.63-1.63V48.73a1.63,1.63,0,0,0-1.63-1.63H53.65a.76.76,0,0,1-.75-.75V29.46a1.63,1.63,0,0,0-1.63-1.63H48.73a1.63,1.63,0,0,0-1.63,1.63V46.35a.76.76,0,0,1-.75.75H29.46a1.63,1.63,0,0,0-1.63,1.63v2.54a1.63,1.63,0,0,0,1.63,1.63H46.35a.76.76,0,0,1,.75.75v7.2a.75.75,0,0,1-1.5,0V54.4H29.46a3.13,3.13,0,0,1-3.13-3.13V48.73a3.13,3.13,0,0,1,3.13-3.13H45.6V29.46a3.13,3.13,0,0,1,3.13-3.13h2.54a3.13,3.13,0,0,1,3.13,3.13V45.6H70.54a3.13,3.13,0,0,1,3.13,3.13v2.54a3.13,3.13,0,0,1-3.13,3.13H54.4V70.54A3.13,3.13,0,0,1,51.27,73.67Z"/><path class="cls-1" d="M46.35,65.73A.74.74,0,0,1,45.6,65V63.37a.75.75,0,0,1,1.5,0V65A.75.75,0,0,1,46.35,65.73Z"/></svg>