<?xml version="1.0" encoding="UTF-8"?>
<svg width="100px" height="100px" viewBox="0 0 100 100" version="1.1" xmlns="http://www.w3.org/2000/svg" xmlns:xlink="http://www.w3.org/1999/xlink">
    <!-- Generator: Sketch 50.2 (55047) - http://www.bohemiancoding.com/sketch -->
    <title>product-icons / Whole life Plus</title>
    <desc>Created with Sketch.</desc>
    <defs>
        <circle id="path-1" cx="50" cy="50" r="50"></circle>
        <path d="M36,9.58833148 C36,10.1695281 35.7681159,10.7492382 35.3489409,11.1669268 L15.3742103,31.1416574 C14.9565217,31.559346 14.3753252,31.7927165 13.795615,31.7927165 C13.2159049,31.7927165 12.6347083,31.5608324 12.2170197,31.1416574 L0.651059086,19.5756968 C0.233370494,19.1580082 0,18.5768116 0,17.9971014 C0,17.4173913 0.231884058,16.8361947 0.651059086,16.4185061 L3.80973616,13.2598291 C4.22742475,12.8421405 4.80862133,12.60877 5.38833148,12.60877 C5.96804162,12.60877 6.5492382,12.840654 6.96692679,13.2598291 L13.795615,20.1108138 L29.0315868,4.85105909 C29.4492754,4.43337049 30.0304719,4.2 30.6101821,4.2 C31.1898922,4.2 31.7710888,4.43188406 32.1887774,4.85105909 L35.3474545,8.00973616 C35.7651431,8.42742475 35.9985136,9.00862133 35.9985136,9.58833148 L36,9.58833148 Z" id="path-3"></path>
    </defs>
    <g id="Quote-States" stroke="none" stroke-width="1" fill="none" fill-rule="evenodd">
        <g id="Artboard" transform="translate(-972.000000, -114.000000)">
            <g id="product-icons-/-Whole-life-Plus" transform="translate(972.000000, 114.000000)">
                <mask id="mask-2" fill="white">
                    <use xlink:href="#path-1"></use>
                </mask>
                <use id="Mask" fill="#317DBD" xlink:href="#path-1"></use>
                <g id="icon-/-ui-/-check" mask="url(#mask-2)">
                    <g transform="translate(33.000000, 33.000000)">
                        <mask id="mask-4" fill="white">
                            <use xlink:href="#path-3"></use>
                        </mask>
                        <use id="Mask" stroke="none" fill="#464646" fill-rule="nonzero" xlink:href="#path-3"></use>
                        <g id="color-/-defaults-/-monochrome-/-white" stroke="none" fill="none" mask="url(#mask-4)" fill-rule="evenodd">
                            <rect id="Rectangle-2" fill="#FFFFFF" x="0" y="0" width="36" height="36"></rect>
                        </g>
                    </g>
                </g>
            </g>
        </g>
    </g>
</svg>